<svg width="800" height="400" viewBox="0 0 800 400" fill="none"
  xmlns="http://www.w3.org/2000/svg">
  <defs>
    <marker id="arrow-validator-light" markerWidth="10" markerHeight="7" refX="9" refY="3.5" orient="auto">
      <polygon points="0 0, 10 3.5, 0 7" fill="#64748b"/>
    </marker>
  </defs>

  <!-- JSON Schema Editor (Left) -->
  <g transform="translate(60, 80)">
    <!-- Window frame -->
    <rect x="0" y="0" width="260" height="240" rx="8" fill="#f8fafc" stroke="#94a3b8" stroke-width="2"/>

    <!-- Window header -->
    <rect x="0" y="0" width="260" height="32" rx="8" fill="#e2e8f0"/>
    <rect x="0" y="24" width="260" height="8" fill="#e2e8f0"/>

    <!-- Window controls -->
    <circle cx="16" cy="16" r="5" fill="#ef4444"/>
    <circle cx="32" cy="16" r="5" fill="#f59e0b"/>
    <circle cx="48" cy="16" r="5" fill="#10b981"/>

    <!-- Title -->
    <text x="130" y="20" fill="#475569" font-family="system-ui, -apple-system, sans-serif" font-size="12" font-weight="600" text-anchor="middle">JSON Schema</text>

    <!-- JSON Content -->
    <g font-family="'Monaco', 'Menlo', 'Consolas', monospace" font-size="11">
      <text x="16" y="52" fill="#1e293b" font-weight="600">{</text>
      <text x="28" y="68" fill="#475569">"$schema": "...",</text>
      <text x="28" y="84" fill="#475569">"type": "object",</text>
      <text x="28" y="100" fill="#475569">"properties": {</text>
      <text x="44" y="116" fill="#0369a1" font-weight="600">"action": "...",</text>
      <text x="44" y="132" fill="#7e22ce" font-weight="600">"epcList": [...],</text>
      <text x="44" y="148" fill="#0f766e" font-weight="600">"bizStep": "..."</text>
      <text x="28" y="164" fill="#475569">},</text>
      <text x="28" y="180" fill="#475569">"required": [...]</text>
      <text x="16" y="196" fill="#1e293b" font-weight="600">}</text>
    </g>
  </g>

  <!-- Validation Arrow and Checkmark (Center) -->
  <g transform="translate(400, 200)">
    <!-- Arrow from Schema to Validator -->
    <path d="M -70 0 L -45 0" stroke="#64748b" stroke-width="2" marker-end="url(#arrow-validator-light)"/>

    <!-- Validation Circle with Checkmark -->
    <circle cx="0" cy="0" r="32" fill="#f0fdf4" stroke="#22c55e" stroke-width="3"/>
    <path d="M-12 0 L-4 8 L14 -10" stroke="#22c55e" stroke-width="4" stroke-linecap="round" stroke-linejoin="round" fill="none"/>

    <!-- Arrow from Validator to Data -->
    <path d="M 45 0 L 70 0" stroke="#64748b" stroke-width="2" marker-end="url(#arrow-validator-light)"/>
  </g>

  <!-- JSON Data Editor (Right) -->
  <g transform="translate(480, 80)">
    <!-- Window frame -->
    <rect x="0" y="0" width="260" height="240" rx="8" fill="#f8fafc" stroke="#94a3b8" stroke-width="2"/>

    <!-- Window header -->
    <rect x="0" y="0" width="260" height="32" rx="8" fill="#e2e8f0"/>
    <rect x="0" y="24" width="260" height="8" fill="#e2e8f0"/>

    <!-- Window controls -->
    <circle cx="16" cy="16" r="5" fill="#ef4444"/>
    <circle cx="32" cy="16" r="5" fill="#f59e0b"/>
    <circle cx="48" cy="16" r="5" fill="#10b981"/>

    <!-- Title -->
    <text x="130" y="20" fill="#475569" font-family="system-ui, -apple-system, sans-serif" font-size="12" font-weight="600" text-anchor="middle">JSON Data</text>

    <!-- JSON Content -->
    <g font-family="'Monaco', 'Menlo', 'Consolas', monospace" font-size="11">
      <text x="16" y="52" fill="#1e293b" font-weight="600">{</text>
      <text x="28" y="68" fill="#475569">"type": "ObjectEvent",</text>
      <text x="28" y="84" fill="#0369a1" font-weight="600">"action": "OBSERVE",</text>
      <text x="28" y="100" fill="#7e22ce" font-weight="600">"epcList": [</text>
      <text x="44" y="116" fill="#7e22ce">"https://id.gs1.org/01"</text>
      <text x="28" y="132" fill="#7e22ce" font-weight="600">],</text>
      <text x="28" y="148" fill="#0f766e" font-weight="600">"bizStep": "shipping",</text>
      <text x="28" y="164" fill="#475569">"eventTime": "...",</text>
      <text x="28" y="180" fill="#475569">"readPoint": {...}</text>
      <text x="16" y="196" fill="#1e293b" font-weight="600">}</text>
    </g>
  </g>

  <!-- Labels -->
  <text x="190" y="350" fill="#64748b" font-family="system-ui, -apple-system, sans-serif" font-size="14" font-weight="500" text-anchor="middle">Profile Schema</text>
  <text x="400" y="280" fill="#16a34a" font-family="system-ui, -apple-system, sans-serif" font-size="13" font-weight="600" text-anchor="middle">Valid</text>
  <text x="610" y="350" fill="#64748b" font-family="system-ui, -apple-system, sans-serif" font-size="14" font-weight="500" text-anchor="middle">EPCIS Event</text>
</svg>
